<?xml version="1.0" encoding="UTF-8"?>
<svg enable-background="new 0 0 81.01 122.88" version="1.1" viewBox="0 0 81.01 122.88" xml:space="preserve" xmlns="http://www.w3.org/2000/svg"><path fill="#cecece" class="st0" d="m68.19 12.99c-2.93 1.48-9.26 2.3-16.67 2.63 0.68 0.56 1.3 1.15 1.78 1.78 1.73 2.29 1.8 4.79-2.16 7.78-0.6 0.45-1.45 0.33-1.9-0.27s-0.33-1.45 0.27-1.9c2.28-1.73 2.4-2.96 1.63-3.98s-2.21-2.02-3.65-3.03l-0.36-0.25c-5.07 0.09-10.41-0.02-15.37-0.29-0.26 0.38-0.48 0.78-0.68 1.21-0.92 1.96-1.27 4.44-1.15 7.37 0.03 0.75-0.55 1.38-1.3 1.41s-1.38-0.55-1.41-1.3c-0.14-3.36 0.3-6.25 1.41-8.62 0.04-0.08 0.08-0.17 0.12-0.25-7.31-0.51-13.41-1.36-16-2.42-6 24.07-7.56 53.65-9.12 83.22-0.14 2.66-1.36 12.31-0.01 14.04 0.18 0.23 0.38 0.44 0.59 0.62 0.07 0.04 0.13 0.09 0.18 0.15 0.08 0.06 0.17 0.12 0.26 0.18 0.94 0.61 3.74 1.11 6.68 1.38 3.09 0.28 6.19 0.28 7.33-0.13 0.81-0.3 1.47-0.71 1.97-1.25s0.85-1.22 1.07-2.05l0.69-2.88h-0.01c5.06-21.21 10.8-45.24 16.88-53.84 0.43-0.61 1.28-0.76 1.89-0.33l0.03 0.02c4.79 3.12 11.55 29.26 17.15 50.94 0.8 3.08 0.96 7.06 3.73 8.78l0.04 0.02c1.38 0.8 4.86 1.03 8.28 0.69 3.29-0.33 6.39-1.14 7.18-2.39l0.03-0.06 0.02-0.03c0.21-0.38 0.38-0.78 0.49-1.2 0.12-0.44 0.19-0.91 0.22-1.42-0.18-2.67-0.38-5.69-0.57-8.72-1.93-29.23-3.85-58.45-9.56-85.61zm-33.96-2.98c0.68-0.31 1.49 0 1.79 0.68 0.31 0.68 0 1.49-0.68 1.79-0.53 0.24-1.03 0.52-1.48 0.83 0.39 0.28 0.87 0.44 1.39 0.44 1.32 0 2.39-1.07 2.39-2.39s-1.07-2.39-2.39-2.39c-1.08 0-1.98 0.71-2.28 1.69 0.4-0.23 0.82-0.45 1.26-0.65zm8.71 1.95c-0.39-0.64-0.19-1.47 0.45-1.86s1.47-0.19 1.86 0.45c0.28 0.46 0.73 0.92 1.28 1.39 0.04-0.18 0.07-0.37 0.07-0.56 0-1.32-1.07-2.39-2.39-2.39s-2.39 1.07-2.39 2.39 1.07 2.39 2.39 2.39c0.1 0 0.19-0.01 0.28-0.02-0.62-0.57-1.16-1.16-1.55-1.79zm20.55 102.99 0.43 2.46c0.37 2.1 1.98 2.71 3.91 2.67 2.36-0.06 5.22-1.02 7.28-1.75 0.02-0.01 0.05-0.02 0.07-0.02l0.31-0.11c0.89-0.32 1.24-0.37 1.26-0.41 0.03-0.05-0.04-0.23-0.07-0.73-0.02-0.37-0.05-0.83-0.06-1.49l-0.02-1.79c-1.71 0.68-3.83 1.13-5.98 1.34-2.5 0.24-5.1 0.19-7.13-0.17zm15.79-2.81 0.05 3.38c0.01 0.5 0.03 0.98 0.06 1.37 0.06 1.03 0.09 1.6-0.3 2.26-0.48 0.8-1.16 1.05-2.69 1.59l-0.31 0.11c-0.02 0.01-0.04 0.02-0.06 0.02-2.23 0.8-5.33 1.83-8.13 1.9-3.23 0.08-5.96-1.05-6.64-4.91l-0.69-3.9c-0.54-0.34-1.05-0.76-1.53-1.24-2.4-2.43-2.52-5.91-3.35-9.13-5.1-19.74-11.18-43.29-15.07-48.45-5.49 9.19-10.85 31.67-15.62 51.63l-0.69 2.88-0.01 0.02c-0.33 1.28-0.91 2.36-1.71 3.23-0.52 0.56-1.13 1.03-1.82 1.41l-0.53 3.1c-0.08 0.46-0.2 0.88-0.35 1.28-0.82 2.15-2.53 3.33-4.62 3.85-1.87 0.48-4.05 0.4-6.07 0.05-1.44-0.25-2.81-0.64-3.94-1.07-3.35-1.27-3.35-1.48-3.25-4.18 0.01-0.29 0.02-0.62 0.02-0.94l0.04-3.93c-0.22-0.21-0.42-0.44-0.61-0.69-2.78-3.57-0.8-11.31-0.56-15.84 1.57-29.88 3.15-59.75 9.29-84.13l1.29-8.81c0.1-0.69 0.69-1.18 1.37-1.16 3.77-1.28 14.31-1.84 25.31-1.84 12.54 0 25.79 0.72 30.28 1.95 0.19 0.05 0.36 0.14 0.5 0.26 0.33 0.21 0.57 0.56 0.62 0.98l1.01 7.97c5.96 27.69 7.91 57.48 9.86 87.27 0.18 2.8 0.37 5.61 0.58 8.77v0.15c-0.03 0.73-0.14 1.43-0.32 2.1-0.18 0.66-0.43 1.27-0.75 1.84-0.01 0.03-0.03 0.06-0.05 0.09l-0.03 0.06-0.01 0.01c-0.16 0.23-0.35 0.47-0.57 0.69zm-74.51 1.89-0.02 2.4c0 0.42-0.02 0.73-0.02 1.01-0.03 0.91-0.03 0.98 1.5 1.56 0.98 0.37 2.18 0.71 3.44 0.93 1.69 0.29 3.48 0.36 4.95-0.01 1.26-0.32 2.29-0.99 2.74-2.18 0.09-0.23 0.16-0.5 0.21-0.78l0.3-1.75c-1.79 0.2-4.34 0.16-6.81-0.06-2.33-0.22-4.66-0.61-6.29-1.12zm35.13-108.97c7.75 0 15.65-0.45 21.47-1.45-6.03-0.57-14.76-0.89-23.21-0.89-7.81 0-15.32 0.27-20.15 0.85 4.99 0.95 13.31 1.49 21.89 1.49z"/></svg>
