<?xml version="1.0" encoding="UTF-8"?>
<svg enable-background="new 0 0 122.88 100.92" version="1.1" viewBox="0 0 122.88 100.92" xml:space="preserve" xmlns="http://www.w3.org/2000/svg"><path fill="#cecece" d="m0 100.92c0.81-25.87 1.6-59.68 2.4-85.53v-0.13c0-0.09 0-0.18 0.02-0.27l0.4-12.75c0.03-1.25 1.06-2.24 2.3-2.24h112.79c1.28 0 2.3 1.04 2.3 2.3l0.36 12.34c0.04 0.18 0.05 0.36 0.05 0.54 0 0.14-0.02 0.27-0.04 0.4l2.29 85.35h-57.33l-4.06-26.13-4.12 26.13h-57.36v-0.01zm118.19-4.02-1.23-48.9c-7.79-1.49-14.48-4.42-19.67-9.32-5.22-4.91-8.87-11.76-10.52-21.04h-22.51v25.33c0 1.55-1.26 2.82-2.82 2.82-1.55 0-2.82-1.26-2.82-2.82v-25.34c-3.06 0-7.76-0.01-22.74-0.01-1.64 9.3-5.29 16.13-10.52 21.04-5.12 4.84-11.72 7.76-19.36 9.27l-1.29 48.97h48.63l5.9-39.23c0.14-1.01 0.94-1.83 1.98-1.96 1.26-0.16 2.43 0.72 2.59 1.98l5.78 39.21h48.6zm-26.73-79.28c1.53 7.84 4.62 13.58 8.99 17.7 4.3 4.05 9.87 6.56 16.38 7.95l-0.77-25.64h-24.6v-0.01zm-85.32 25.58c6.37-1.4 11.83-3.9 16.06-7.88 4.35-4.1 7.46-9.85 8.99-17.7h-24.24l-0.81 25.58z"/></svg>
